<?xml version="1.0" encoding="UTF-8" standalone="no"?>
<svg
   xmlns:dc="http://purl.org/dc/elements/1.1/"
   xmlns:cc="http://web.resource.org/cc/"
   xmlns:rdf="http://www.w3.org/1999/02/22-rdf-syntax-ns#"
   xmlns:svg="http://www.w3.org/2000/svg"
   xmlns="http://www.w3.org/2000/svg"
   xmlns:xlink="http://www.w3.org/1999/xlink"
   xmlns:sodipodi="http://sodipodi.sourceforge.net/DTD/sodipodi-0.dtd"
   xmlns:inkscape="http://www.inkscape.org/namespaces/inkscape"
   width="480"
   height="360"
   viewBox="0 0 480 360"
   id="svg2971"
   sodipodi:version="0.32"
   inkscape:version="0.45"
   sodipodi:docname="fyr-stats-response-histo.svg"
   sodipodi:docbase="/tmp"
   inkscape:output_extension="org.inkscape.output.svg.inkscape"
   sodipodi:modified="true">
  <metadata
     id="metadata3242">
    <rdf:RDF>
      <cc:Work
         rdf:about="">
        <dc:format>image/svg+xml</dc:format>
        <dc:type
           rdf:resource="http://purl.org/dc/dcmitype/StillImage" />
      </cc:Work>
    </rdf:RDF>
  </metadata>
  <sodipodi:namedview
     inkscape:window-height="750"
     inkscape:window-width="1280"
     inkscape:pageshadow="2"
     inkscape:pageopacity="0.0"
     guidetolerance="10.0"
     gridtolerance="10.0"
     objecttolerance="10.0"
     borderopacity="1.0"
     bordercolor="#666666"
     pagecolor="#ffffff"
     id="base"
     inkscape:zoom="2"
     inkscape:cx="354.80071"
     inkscape:cy="185.96538"
     inkscape:window-x="0"
     inkscape:window-y="0"
     inkscape:current-layer="svg2971" />
  <desc
     id="desc2973">Produced by GNUPLOT 4.2 patchlevel 0 </desc>
  <defs
     id="defs2975">
    <circle
       id="gpDot"
       r="1" />
    <path
       id="gpPt0"
       style="stroke-width:0.222"
       d="M-1,0 h2 M0,-1 v2" />
    <path
       id="gpPt1"
       style="stroke-width:0.222"
       d="M-1,-1 L1,1 M1,-1 L-1,1" />
    <path
       id="gpPt2"
       style="stroke-width:0.222"
       d="M-1,0 L1,0 M0,-1 L0,1 M-1,-1 L1,1 M-1,1 L1,-1" />
    <rect
       id="gpPt3"
       style="stroke-width:0.222"
       x="-1"
       y="-1"
       width="2"
       height="2" />
    <use
       xlink:href="#gpPt3"
       id="gpPt4"
       style="fill:currentColor; stroke:none" />
    <circle
       id="gpPt5"
       style="stroke-width:0.222"
       cx="0"
       cy="0"
       r="1" />
    <use
       xlink:href="#gpPt5"
       id="gpPt6"
       style="fill:currentColor; stroke:none" />
    <path
       id="gpPt7"
       style="stroke-width:0.222"
       d="M0,-1.33 L-1.33,0.67 L1.33,0.67 z" />
    <use
       xlink:href="#gpPt7"
       id="gpPt8"
       style="fill:currentColor; stroke:none" />
    <use
       xlink:href="#gpPt7"
       id="gpPt9"
       transform="rotate(180)" />
    <use
       xlink:href="#gpPt9"
       id="gpPt10"
       style="fill:currentColor; stroke:none" />
    <use
       xlink:href="#gpPt3"
       id="gpPt11"
       transform="rotate(45)" />
    <use
       xlink:href="#gpPt11"
       id="gpPt12"
       style="fill:currentColor; stroke:none" />
  </defs>
  <g
     style="fill:none; color:white; stroke:currentColor; stroke-width:1.00; stroke-linecap:butt; stroke-linejoin:miter"
     id="g2991" />
  <g
     style="fill:none; color:black; stroke:currentColor; stroke-width:1.00; stroke-linecap:butt; stroke-linejoin:miter"
     id="g2993">
    <path
       d="M68.5,306.0 L77.5,306.0 "
       id="path2995" />
    <g
       transform="translate(60.2,310.5)"
       style="stroke:none; fill:black; font-family:Arial; font-size:12.00; text-anchor:end"
       id="g2997">
      <text
         id="text2999"> 2</text>
    </g>
    <path
       d="M68.5,273.8 L77.5,273.8 "
       id="path3001" />
    <g
       transform="translate(60.2,278.3)"
       style="stroke:none; fill:black; font-family:Arial; font-size:12.00; text-anchor:end"
       id="g3003">
      <text
         id="text3005"> 4</text>
    </g>
    <path
       d="M68.5,241.7 L77.5,241.7 "
       id="path3007" />
    <g
       transform="translate(60.2,246.2)"
       style="stroke:none; fill:black; font-family:Arial; font-size:12.00; text-anchor:end"
       id="g3009">
      <text
         id="text3011"> 6</text>
    </g>
    <path
       d="M68.5,209.5 L77.5,209.5 "
       id="path3013" />
    <g
       transform="translate(60.2,214.0)"
       style="stroke:none; fill:black; font-family:Arial; font-size:12.00; text-anchor:end"
       id="g3015">
      <text
         id="text3017"> 8</text>
    </g>
    <path
       d="M68.5,177.4 L77.5,177.4 "
       id="path3019" />
    <g
       transform="translate(60.2,181.9)"
       style="stroke:none; fill:black; font-family:Arial; font-size:12.00; text-anchor:end"
       id="g3021">
      <text
         id="text3023"> 10</text>
    </g>
    <path
       d="M68.5,145.2 L77.5,145.2 "
       id="path3025" />
    <g
       transform="translate(60.2,149.7)"
       style="stroke:none; fill:black; font-family:Arial; font-size:12.00; text-anchor:end"
       id="g3027">
      <text
         id="text3029"> 12</text>
    </g>
    <path
       d="M68.5,113.1 L77.5,113.1 "
       id="path3031" />
    <g
       transform="translate(60.2,117.6)"
       style="stroke:none; fill:black; font-family:Arial; font-size:12.00; text-anchor:end"
       id="g3033">
      <text
         id="text3035"> 14</text>
    </g>
    <path
       d="M68.5,80.9 L77.5,80.9 "
       id="path3037" />
    <g
       transform="translate(60.2,85.4)"
       style="stroke:none; fill:black; font-family:Arial; font-size:12.00; text-anchor:end"
       id="g3039">
      <text
         id="text3041"> 16</text>
    </g>
    <path
       d="M68.5,48.8 L77.5,48.8 "
       id="path3043" />
    <g
       transform="translate(60.2,53.3)"
       style="stroke:none; fill:black; font-family:Arial; font-size:12.00; text-anchor:end"
       id="g3045">
      <text
         id="text3047"> 18</text>
    </g>
    <path
       d="M68.5,16.6 L77.5,16.6 "
       id="path3049" />
    <g
       transform="translate(60.2,21.1)"
       style="stroke:none; fill:black; font-family:Arial; font-size:12.00; text-anchor:end"
       id="g3051">
      <text
         id="text3053"> 20</text>
    </g>
    <g
       transform="translate(107.1,328.5)"
       style="stroke:none; fill:black; font-family:Arial; font-size:12.00; text-anchor:middle"
       id="g3057">
      <text
         id="text3059">0-10%</text>
    </g>
    <path
       d="M212.3,306.0 L212.3,297.0 "
       id="path3061" />
    <g
       transform="translate(212.3,328.5)"
       style="stroke:none; fill:black; font-family:Arial; font-size:12.00; text-anchor:middle"
       id="g3063">
      <text
         id="text3065">30-40%</text>
    </g>
    <path
       d="M317.6,306.0 L317.6,297.0 "
       id="path3067" />
    <g
       transform="translate(317.6,328.5)"
       style="stroke:none; fill:black; font-family:Arial; font-size:12.00; text-anchor:middle"
       id="g3069">
      <text
         id="text3071">60-70%</text>
    </g>
    <path
       d="M422.8,306.0 L422.8,297.0 "
       id="path3073" />
    <g
       transform="translate(422.8,328.5)"
       style="stroke:none; fill:black; font-family:Arial; font-size:12.00; text-anchor:middle"
       id="g3075">
      <text
         id="text3077">90-100%</text>
    </g>
    <g
       transform="translate(22.5,161.3) rotate(-90)"
       style="stroke:none; fill:black; font-family:Arial; font-size:12.00; text-anchor:middle"
       id="g3079">
      <text
         id="text3081">% of MPs with responsiveness rate in given range</text>
    </g>
    <g
       transform="translate(261.4,355.5)"
       style="stroke:none; fill:black; font-family:Arial; font-size:12.00; text-anchor:middle"
       id="g3083">
      <text
         id="text3085">Mean response rate of MPs to messages sent via WriteToThem</text>
    </g>
  </g>
  <g
     style="fill:none; color:green; stroke:currentColor; stroke-width:1.00; stroke-linecap:butt; stroke-linejoin:miter"
     id="g3087" />
  <g
     style="fill:none; color:black; stroke:currentColor; stroke-width:1.00; stroke-linecap:butt; stroke-linejoin:miter"
     id="g3089">
    <g
       transform="translate(110.0,39.1)"
       style="stroke:none; fill:black; font-family:Arial; font-size:12.00; text-anchor:end"
       id="g3091">
      <text
         id="text3093">2005</text>
    </g>
  </g>
  <g
     style="fill:none; color:green; stroke:currentColor; stroke-width:1.00; stroke-linecap:butt; stroke-linejoin:miter"
     id="g3095">
    <g
       style="stroke:none; shape-rendering:crispEdges"
       id="g3097">
      <polygon
         fill="currentColor"
         points="118.3,39.1 160.5,39.1 160.5,30.1 118.3,30.1 "
         id="polygon3099" />
    </g>
    <path
       d="M118.3,39.1 L160.5,39.1 L160.5,30.1 L118.3,30.1 L118.3,39.1 Z "
       id="path3101"
       style="fill:#0000cc;fill-opacity:0.94117647;stroke:none" />
    <g
       style="stroke:none; shape-rendering:crispEdges"
       id="g3103">
      <polygon
         fill="currentColor"
         points="93.1,306.0 102.5,306.0 102.5,262.2 93.1,262.2 "
         id="polygon3105" />
    </g>
    <path
       d="M93.1,306.0 L93.1,262.3 L102.4,262.3 L102.4,306.0 L93.1,306.0 Z "
       id="path3107"
       style="stroke:none;fill:#0000cc;fill-opacity:0.94117647" />
    <g
       style="stroke:none; shape-rendering:crispEdges"
       id="g3109">
      <polygon
         fill="currentColor"
         points="128.1,306.0 137.6,306.0 137.6,297.0 128.1,297.0 "
         id="polygon3111" />
    </g>
    <path
       d="M128.1,306.0 L128.1,297.1 L137.5,297.1 L137.5,306.0 L128.1,306.0 Z "
       id="path3113"
       style="stroke:none;fill:#0000cc;fill-opacity:0.94117647" />
    <g
       style="stroke:none; shape-rendering:crispEdges"
       id="g3115">
      <polygon
         fill="currentColor"
         points="163.2,306.0 172.7,306.0 172.7,268.3 163.2,268.3 "
         id="polygon3117" />
    </g>
    <path
       d="M163.2,306.0 L163.2,268.4 L172.6,268.4 L172.6,306.0 L163.2,306.0 Z "
       id="path3119"
       style="stroke:none;fill:#0000cc;fill-opacity:0.94117647" />
    <g
       style="stroke:none; shape-rendering:crispEdges"
       id="g3121">
      <polygon
         fill="currentColor"
         points="198.3,306.0 207.8,306.0 207.8,206.8 198.3,206.8 "
         id="polygon3123" />
    </g>
    <path
       d="M198.3,306.0 L198.3,206.9 L207.7,206.9 L207.7,306.0 L198.3,306.0 Z "
       id="path3125"
       style="stroke:none;fill:#0000cc;fill-opacity:0.94117647" />
    <g
       style="stroke:none; shape-rendering:crispEdges"
       id="g3127">
      <polygon
         fill="currentColor"
         points="233.4,306.0 242.8,306.0 242.8,176.0 233.4,176.0 "
         id="polygon3129" />
    </g>
    <path
       d="M233.4,306.0 L233.4,176.1 L242.7,176.1 L242.7,306.0 L233.4,306.0 Z "
       id="path3131"
       style="stroke:none;fill:#0000cc;fill-opacity:0.94117647" />
    <g
       style="stroke:none; shape-rendering:crispEdges"
       id="g3133">
      <polygon
         fill="currentColor"
         points="268.5,306.0 277.9,306.0 277.9,155.5 268.5,155.5 "
         id="polygon3135" />
    </g>
    <path
       d="M268.5,306.0 L268.5,155.6 L277.8,155.6 L277.8,306.0 L268.5,306.0 Z "
       id="path3137"
       style="stroke:none;fill:#0000cc;fill-opacity:0.94117647" />
    <g
       style="stroke:none; shape-rendering:crispEdges"
       id="g3139">
      <polygon
         fill="currentColor"
         points="303.5,306.0 313.0,306.0 313.0,110.4 303.5,110.4 "
         id="polygon3141" />
    </g>
    <path
       d="M303.5,306.0 L303.5,110.5 L312.9,110.5 L312.9,306.0 L303.5,306.0 Z "
       id="path3143"
       style="stroke:none;fill:#0000cc;fill-opacity:0.94117647" />
    <g
       style="stroke:none; shape-rendering:crispEdges"
       id="g3145">
      <polygon
         fill="currentColor"
         points="338.6,306.0 348.1,306.0 348.1,112.5 338.6,112.5 "
         id="polygon3147" />
    </g>
    <path
       d="M338.6,306.0 L338.6,112.6 L348.0,112.6 L348.0,306.0 L338.6,306.0 Z "
       id="path3149"
       style="stroke:none;fill:#0000cc;fill-opacity:0.94117647" />
    <g
       style="stroke:none; shape-rendering:crispEdges"
       id="g3151">
      <polygon
         fill="currentColor"
         points="373.7,306.0 383.2,306.0 383.2,79.7 373.7,79.7 "
         id="polygon3153" />
    </g>
    <path
       d="M373.7,306.0 L373.7,79.8 L383.1,79.8 L383.1,306.0 L373.7,306.0 Z "
       id="path3155"
       style="stroke:none;fill:#0000cc;fill-opacity:0.94117647" />
    <g
       style="stroke:none; shape-rendering:crispEdges"
       id="g3157">
      <polygon
         fill="currentColor"
         points="408.8,306.0 418.2,306.0 418.2,208.9 408.8,208.9 "
         id="polygon3159" />
    </g>
    <path
       d="M408.8,306.0 L408.8,209.0 L418.1,209.0 L418.1,306.0 L408.8,306.0 Z "
       id="path3161"
       style="stroke:none;fill:#0000cc;fill-opacity:0.94117647" />
  </g>
  <g
     style="fill:none; color:blue; stroke:currentColor; stroke-width:1.00; stroke-linecap:butt; stroke-linejoin:miter"
     id="g3163" />
  <g
     style="fill:none; color:black; stroke:currentColor; stroke-width:1.00; stroke-linecap:butt; stroke-linejoin:miter"
     id="g3165">
    <g
       transform="translate(110.0,57.1)"
       style="stroke:none; fill:black; font-family:Arial; font-size:12.00; text-anchor:end"
       id="g3167">
      <text
         id="text3169">2006</text>
    </g>
  </g>
  <g
     id="g3173"
     style="color:#0000ff;fill:none;stroke:none;stroke-width:1;stroke-linecap:butt;stroke-linejoin:miter">
    <polygon
       style="fill:currentColor"
       id="polygon3175"
       points="118.3,57.1 160.5,57.1 160.5,48.1 118.3,48.1 118.3,57.1 " />
  </g>
  <path
     style="color:#0000ff;fill:#ffe92c;fill-opacity:1;stroke:none;stroke-width:1;stroke-linecap:butt;stroke-linejoin:miter;stroke-opacity:1"
     id="path3177"
     d="M 118.3,57.1 L 160.5,57.1 L 160.5,48.1 L 118.3,48.1 L 118.3,57.1 z " />
  <path
     style="color:#0000ff;fill:#ffe92c;fill-opacity:1;stroke:none;stroke-width:1;stroke-linecap:butt;stroke-linejoin:miter"
     id="path3183"
     d="M 104.8,306 L 104.8,303.5 L 114.1,303.5 L 114.1,306 L 104.8,306 z " />
  <path
     style="color:#0000ff;fill:#ffe92c;fill-opacity:1;stroke:none;stroke-width:1;stroke-linecap:butt;stroke-linejoin:miter"
     id="path3189"
     d="M 139.8,306 L 139.8,303.5 L 149.2,303.5 L 149.2,306 L 139.8,306 z " />
  <path
     style="color:#0000ff;fill:#ffe92c;fill-opacity:1;stroke:none;stroke-width:1;stroke-linecap:butt;stroke-linejoin:miter"
     id="path3195"
     d="M 174.9,306 L 174.9,256.5 L 184.3,256.5 L 184.3,306 L 174.9,306 z " />
  <path
     style="color:#0000ff;fill:#ffe92c;fill-opacity:1;stroke:none;stroke-width:1;stroke-linecap:butt;stroke-linejoin:miter"
     id="path3201"
     d="M 210,306 L 210,209.5 L 219.4,209.5 L 219.4,306 L 210,306 z " />
  <path
     sodipodi:nodetypes="ccccc"
     style="color:#0000ff;fill:#ffe92c;fill-opacity:1;stroke:none;stroke-width:1;stroke-linecap:butt;stroke-linejoin:miter"
     id="path3207"
     d="M 245.1,306 L 245.1,152.6 L 254.4,152.6 L 254.4,306 L 245.1,306 z " />
  <path
     style="color:#0000ff;fill:#ffe92c;fill-opacity:1;stroke:none;stroke-width:1;stroke-linecap:butt;stroke-linejoin:miter"
     id="path3213"
     d="M 280.2,306 L 280.2,118 L 289.5,118 L 289.5,306 L 280.2,306 z " />
  <path
     style="color:#0000ff;fill:#ffe92c;fill-opacity:1;stroke:none;stroke-width:1;stroke-linecap:butt;stroke-linejoin:miter"
     id="path3219"
     d="M 315.2,306 L 315.2,68.5 L 324.6,68.5 L 324.6,306 L 315.2,306 z " />
  <path
     style="color:#0000ff;fill:#ffe92c;fill-opacity:1;stroke:none;stroke-width:1;stroke-linecap:butt;stroke-linejoin:miter"
     id="path3225"
     d="M 350.3,306 L 350.3,41.3 L 359.7,41.3 L 359.7,306 L 350.3,306 z " />
  <path
     style="color:#0000ff;fill:#ffe92c;fill-opacity:1;stroke:none;stroke-width:1;stroke-linecap:butt;stroke-linejoin:miter"
     id="path3231"
     d="M 385.4,306 L 385.4,71 L 394.8,71 L 394.8,306 L 385.4,306 z " />
  <path
     style="color:#0000ff;fill:#ffe92c;fill-opacity:1;stroke:none;stroke-width:1;stroke-linecap:butt;stroke-linejoin:miter"
     id="path3237"
     d="M 420.5,306 L 420.5,254.1 L 429.8,254.1 L 429.8,306 L 420.5,306 z " />
  <g
     style="fill:none; color:black; stroke:currentColor; stroke-width:1.00; stroke-linecap:butt; stroke-linejoin:miter"
     id="g3239" />
</svg>
