<?xml version="1.0" encoding="UTF-8" standalone="no"?>
<svg
   xmlns:dc="http://purl.org/dc/elements/1.1/"
   xmlns:cc="http://web.resource.org/cc/"
   xmlns:rdf="http://www.w3.org/1999/02/22-rdf-syntax-ns#"
   xmlns:svg="http://www.w3.org/2000/svg"
   xmlns="http://www.w3.org/2000/svg"
   xmlns:xlink="http://www.w3.org/1999/xlink"
   xmlns:sodipodi="http://inkscape.sourceforge.net/DTD/sodipodi-0.dtd"
   xmlns:inkscape="http://www.inkscape.org/namespaces/inkscape"
   width="800"
   height="250"
   viewBox="0 0 800 250"
   id="svg2"
   sodipodi:version="0.32"
   inkscape:version="0.42"
   sodipodi:docname="fyr-signups.svg"
   sodipodi:docbase="/home/francis/keep/devel/mysociety/fyr"
   inkscape:export-filename="/home/francis/keep/devel/mysociety/fyr/fyr-signups.png"
   inkscape:export-xdpi="90.000000"
   inkscape:export-ydpi="90.000000">
  <metadata
     id="metadata199">
    <rdf:RDF>
      <cc:Work
         rdf:about="">
        <dc:format>image/svg+xml</dc:format>
        <dc:type
           rdf:resource="http://purl.org/dc/dcmitype/StillImage" />
      </cc:Work>
    </rdf:RDF>
  </metadata>
  <sodipodi:namedview
     inkscape:cy="141.54865"
     inkscape:cx="428.96174"
     inkscape:zoom="1.00000000"
     inkscape:window-height="708"
     inkscape:window-width="1016"
     inkscape:pageshadow="2"
     inkscape:pageopacity="0.0"
     borderopacity="1.0"
     bordercolor="#666666"
     pagecolor="#ffffff"
     id="base"
     inkscape:window-x="0"
     inkscape:window-y="0"
     inkscape:current-layer="svg2" />
  <desc
     id="desc4">Produced by GNUPLOT 4.0 patchlevel 0 </desc>
  <defs
     id="defs6">
    <circle
       id="gpDot"
       r="1" />
    <path
       id="gpPt0"
       style="stroke-width:0.222"
       d="M-1,0 h2 M0,-1 v2" />
    <path
       id="gpPt1"
       style="stroke-width:0.222"
       d="M-1,-1 L1,1 M1,-1 L-1,1" />
    <path
       id="gpPt2"
       style="stroke-width:0.222"
       d="M-1,0 L1,0 M0,-1 L0,1 M-1,-1 L1,1 M-1,1 L1,-1" />
    <rect
       id="gpPt3"
       style="stroke-width:0.222"
       x="-1"
       y="-1"
       width="2"
       height="2" />
    <use
       xlink:href="#gpPt3"
       id="gpPt4"
       style="fill:currentColor; stroke:none" />
    <circle
       id="gpPt5"
       style="stroke-width:0.222"
       cx="0"
       cy="0"
       r="1" />
    <use
       xlink:href="#gpPt5"
       id="gpPt6"
       style="fill:currentColor; stroke:none" />
    <path
       id="gpPt7"
       style="stroke-width:0.222"
       d="M0,-1.33 L-1.33,0.67 L1.33,0.67 z" />
    <use
       xlink:href="#gpPt7"
       id="gpPt8"
       style="fill:currentColor; stroke:none" />
    <use
       xlink:href="#gpPt7"
       id="gpPt9"
       transform="rotate(180)" />
    <use
       xlink:href="#gpPt9"
       id="gpPt10"
       style="fill:currentColor; stroke:none" />
    <use
       xlink:href="#gpPt3"
       id="gpPt11"
       transform="rotate(45)" />
    <use
       xlink:href="#gpPt11"
       id="gpPt12"
       style="fill:currentColor; stroke:none" />
  </defs>
  <g
     style="color:#000000;fill:none;stroke:currentColor;stroke-width:1.0000000;display:inline"
     id="g22">
    <path
       d="M 66.000000,214.00000 L 75.000000,214.00000"
       id="path24" />
    <path
       d="M 66.000000,192.00000 L 75.000000,192.00000"
       id="path30" />
    <path
       d="M 66.000000,170.00000 L 75.000000,170.00000"
       id="path36" />
    <g
       transform="translate(67.00000,174.0000)"
       style="font-size:12.000000px;text-anchor:end;fill:#000000;stroke:none;font-family:Arial"
       id="g38" />
    <path
       d="M 66.000000,148.00000 L 75.000000,148.00000"
       id="path42" />
    <path
       d="M 66.000000,126.00000 L 75.000000,126.00000"
       id="path48" />
    <path
       d="M 66.000000,104.00000 L 75.000000,104.00000"
       id="path54" />
    <path
       d="M 66.000000,82.000000 L 75.000000,82.000000"
       id="path60" />
    <path
       d="M 66.000000,60.000000 L 75.000000,60.000000"
       id="path66" />
    <path
       d="M 66.000000,38.000000 L 75.000000,38.000000"
       id="path72" />
    <path
       d="M 66.000000,16.000000 L 75.000000,16.000000"
       id="pathflipme"
       inkscape:label="#path78" />
    <g
       id="g1411">
      <g
         id="g26"
         style="font-size:12.000000px;text-anchor:end;fill:#000000;stroke:none;font-family:Arial"
         transform="translate(61.00000,218.0000)">
        <text
           id="text28">0</text>
      </g>
      <g
         id="g32"
         style="font-size:12.000000px;text-anchor:end;fill:#000000;stroke:none;font-family:Arial"
         transform="translate(61.00000,196.0000)">
        <text
           id="text34">100</text>
      </g>
      <text
         x="-6"
         id="text40"
         style="font-size:12.000000px;text-anchor:end;fill:#000000;stroke:none;font-family:Arial;color:#000000;stroke-width:1.0000000;display:inline"
         transform="translate(67.00000,174.0000)">200</text>
      <g
         id="g44"
         style="font-size:12.000000px;text-anchor:end;fill:#000000;stroke:none;font-family:Arial"
         transform="translate(61.00000,152.0000)">
        <text
           id="text46">300</text>
      </g>
      <g
         id="g50"
         style="font-size:12.000000px;text-anchor:end;fill:#000000;stroke:none;font-family:Arial"
         transform="translate(61.00000,130.0000)">
        <text
           id="text52">400</text>
      </g>
      <g
         id="g56"
         style="font-size:12.000000px;text-anchor:end;fill:#000000;stroke:none;font-family:Arial"
         transform="translate(61.00000,108.0000)">
        <text
           id="text58">500</text>
      </g>
      <g
         id="g62"
         style="font-size:12.000000px;text-anchor:end;fill:#000000;stroke:none;font-family:Arial"
         transform="translate(61.00000,86.00000)">
        <text
           id="text64">600</text>
      </g>
      <g
         id="g68"
         style="font-size:12.000000px;text-anchor:end;fill:#000000;stroke:none;font-family:Arial"
         transform="translate(61.00000,64.00000)">
        <text
           id="text70">700</text>
      </g>
      <g
         id="g74"
         style="font-size:12.000000px;text-anchor:end;fill:#000000;stroke:none;font-family:Arial"
         transform="translate(61.00000,42.00000)">
        <text
           id="text76">800</text>
      </g>
      <g
         id="g80"
         style="font-size:12.000000px;text-anchor:end;fill:#000000;stroke:none;font-family:Arial"
         transform="translate(61.00000,20.00000)">
        <text
           id="text82">900</text>
      </g>
    </g>
    <path
       d="M 75.000000,223.00000 L 75.000000,214.00000"
       id="path84" />
    <g
       transform="translate(75.00000,236.0000)"
       style="font-size:12.000000px;text-anchor:middle;fill:#000000;stroke:none;font-family:Arial"
       id="g86">
      <text
         id="text88">Jan</text>
    </g>
    <path
       d="M 136.00000,223.00000 L 136.00000,214.00000"
       id="path3698" />
    <g
       transform="translate(136.0000,236.0000)"
       style="font-size:12.000000px;text-anchor:middle;fill:#000000;stroke:none;font-family:Arial"
       id="g92">
      <text
         id="text94">Feb</text>
    </g>
    <path
       d="M 188.00000,223.00000 L 188.00000,214.00000"
       id="path3710" />
    <g
       transform="translate(188.0000,236.0000)"
       style="font-size:12.000000px;text-anchor:middle;fill:#000000;stroke:none;font-family:Arial"
       id="g98">
      <text
         id="text100">Mar</text>
    </g>
    <path
       d="M 249.00000,223.00000 L 249.00000,214.00000"
       id="path3704" />
    <g
       transform="translate(249.0000,236.0000)"
       style="font-size:12.000000px;text-anchor:middle;fill:#000000;stroke:none;font-family:Arial"
       id="g104">
      <text
         id="text106">Apr</text>
    </g>
    <path
       d="M 305.00000,223.00000 L 305.00000,214.00000"
       id="path3716" />
    <g
       transform="translate(305.0000,236.0000)"
       style="font-size:12.000000px;text-anchor:middle;fill:#000000;stroke:none;font-family:Arial"
       id="g110">
      <text
         id="text112">May</text>
    </g>
    <path
       d="M 365.00000,223.00000 L 365.00000,214.00000"
       id="path3723" />
    <g
       transform="translate(365.0000,236.0000)"
       style="font-size:12.000000px;text-anchor:middle;fill:#000000;stroke:none;font-family:Arial"
       id="g116">
      <text
         id="text118">Jun</text>
    </g>
    <path
       d="M 424.00000,223.00000 L 424.00000,214.00000"
       id="path3729" />
    <g
       transform="translate(424.0000,236.0000)"
       style="font-size:12.000000px;text-anchor:middle;fill:#000000;stroke:none;font-family:Arial"
       id="g122">
      <text
         id="text124">Jul</text>
    </g>
    <path
       d="M 482.00000,223.00000 L 482.00000,214.00000"
       id="path3735" />
    <g
       transform="translate(482.0000,236.0000)"
       style="font-size:12.000000px;text-anchor:middle;fill:#000000;stroke:none;font-family:Arial"
       id="g128">
      <text
         id="text130">Aug</text>
    </g>
    <path
       d="M 542.00000,223.00000 L 542.00000,214.00000"
       id="path3741" />
    <g
       transform="translate(542.0000,236.0000)"
       style="font-size:12.000000px;text-anchor:middle;fill:#000000;stroke:none;font-family:Arial"
       id="g134">
      <text
         id="text136">Sep</text>
    </g>
    <path
       d="M 599.00000,223.00000 L 599.00000,214.00000"
       id="path3747" />
    <g
       transform="translate(599.0000,236.0000)"
       style="font-size:12.000000px;text-anchor:middle;fill:#000000;stroke:none;font-family:Arial"
       id="g140">
      <text
         id="text142">Oct</text>
    </g>
    <path
       d="M 659.00000,223.00000 L 659.00000,214.00000"
       id="path3753" />
    <g
       transform="translate(659.0000,236.0000)"
       style="font-size:12.000000px;text-anchor:middle;fill:#000000;stroke:none;font-family:Arial"
       id="g146">
      <text
         id="text148">Nov</text>
    </g>
    <g
       transform="translate(716.0000,236.0000)"
       style="font-size:12.000000px;text-anchor:middle;fill:#000000;stroke:none;font-family:Arial"
       id="g152">
      <text
         id="text154">Dec</text>
    </g>
    <g
       transform="translate(773.0000,236.0000)"
       style="font-size:12.000000px;text-anchor:middle;fill:#000000;stroke:none;font-family:Arial"
       id="g87">
      <text
         id="text89">Jan</text>
    </g>
    <g
       transform="matrix(0.000000,-1.000000,1.000000,0.000000,22.00000,115.0000)"
       style="font-size:12.000000px;text-anchor:middle;fill:#000000;stroke:none;font-family:Arial"
       id="g158">
      <text
         id="text160">messages sent to MPs / calendar day</text>
    </g>
    <g
       transform="translate(165.0000,20.00000)"
       style="font-size:12.000000px;text-anchor:start;fill:#000000;stroke:none;font-family:Arial"
       id="g162">
      <text
         id="text164"
         x="-50"
         y="-1">launch of beta</text>
    </g>
    <g
       transform="translate(185.0000,80.00000)"
       style="font-size:12.000000px;text-anchor:start;fill:#000000;stroke:none;font-family:Arial"
       id="g166">
      <text
         id="text168">Jamie Oliver</text>
    </g>
    <g
       transform="translate(255.0000,17.83691)"
       style="font-size:12.000000px;text-anchor:start;fill:#000000;stroke:none;font-family:Arial"
       id="g170">
      <text
         id="text172"
         x="-10">Election campaign</text>
    </g>
    <g
       transform="matrix(0.000000,-1.000000,1.000000,0.000000,426.0000,16.00000)"
       style="font-size:12.000000px;text-anchor:end;fill:#000000;stroke:none;font-family:Arial"
       id="g174">
      <text
         id="text176"
         x="0"
         y="2">Our World Our Say</text>
    </g>
    <g
       transform="translate(535.0000,156.0000)"
       style="font-size:12.000000px;text-anchor:start;fill:#000000;stroke:none;font-family:Arial"
       id="g178">
      <text
         id="text180">no2id</text>
    </g>
    <g
       transform="translate(635.0000,72.83691)"
       style="font-size:12.000000px;text-anchor:start;fill:#000000;stroke:none;font-family:Arial"
       id="g182">
      <text
         id="text184"
         y="-55">animalasia.org</text>
    </g>
    <g
       transform="translate(229.6875,31.31050)"
       style="font-size:12.000000px;text-anchor:start;color:#000000;fill:#000000;stroke:none;stroke-width:1.0000000;display:inline;font-family:Arial"
       id="g1452">
      <text
         id="text1454">(MP contacts disabled)</text>
    </g>
  </g>
  <path
     style="color:#808080;fill:none;stroke:currentColor;stroke-width:1.0000000"
     d="M 159.00000,181.00000 L 159.00000,28.000000"
     id="path192" />
  <path
     style="color:#808080;fill:none;stroke:currentColor;stroke-width:1.0000000"
     d="M 673.00000,138.00000 L 673.00000,28.000000"
     id="path1469" />
  <path
     style="color:#808080;fill:none;stroke:currentColor;stroke-width:1.0000000"
     d="M 762.00000,198.00000 L 762.00000,148.00000"
     id="path1467" />
  <g
     style="fill:none; color:cyan; stroke:currentColor; stroke-width:1.00"
     id="g194">
    <path
       d="M 75.000000,214.00000 L 77.000000,213.00000 L 79.000000,214.00000 L 81.000000,212.00000 L 83.000000,187.00000 L 85.000000,192.00000 L 87.000000,209.00000 L 88.000000,209.00000 L 90.000000,205.00000 L 92.000000,199.00000 L 94.000000,195.00000 L 96.000000,203.00000 L 98.000000,200.00000 L 100.00000,201.00000 L 102.00000,214.00000 L 104.00000,213.00000 L 106.00000,185.00000 L 108.00000,199.00000 L 110.00000,200.00000 L 111.00000,204.00000 L 113.00000,203.00000 L 115.00000,206.00000 L 117.00000,208.00000 L 119.00000,197.00000 L 121.00000,198.00000 L 123.00000,210.00000 L 125.00000,210.00000 L 127.00000,181.00000 L 129.00000,208.00000 L 131.00000,205.00000 L 133.00000,197.00000 L 134.00000,200.00000 L 136.00000,198.00000 L 138.00000,199.00000 L 140.00000,203.00000 L 142.00000,214.00000 L 144.00000,203.00000 L 146.00000,196.00000 L 148.00000,200.00000 L 150.00000,198.00000 L 152.00000,204.00000 L 154.00000,176.00000 L 156.00000,203.00000 L 157.00000,205.00000 L 159.00000,195.00000 L 161.00000,188.00000 L 163.00000,187.00000 L 165.00000,196.00000 L 167.00000,190.00000 L 169.00000,206.00000 L 171.00000,209.00000 L 173.00000,183.00000 L 175.00000,202.00000 L 177.00000,170.00000 L 179.00000,187.00000 L 180.00000,186.00000 L 182.00000,196.00000 L 184.00000,192.00000 L 186.00000,183.00000 L 188.00000,186.00000 L 190.00000,192.00000 L 192.00000,159.00000 L 194.00000,159.00000 L 196.00000,191.00000 L 198.00000,197.00000 L 200.00000,178.00000 L 202.00000,170.00000 L 203.00000,186.00000 L 205.00000,186.00000 L 207.00000,184.00000 L 209.00000,204.00000 L 211.00000,198.00000 L 213.00000,196.00000 L 215.00000,180.00000 L 217.00000,170.00000 L 219.00000,86.000000 L 221.00000,115.00000 L 223.00000,169.00000 L 225.00000,124.00000 L 227.00000,123.00000 L 228.00000,140.00000 L 230.00000,166.00000 L 232.00000,171.00000 L 234.00000,193.00000 L 236.00000,198.00000 L 238.00000,202.00000 L 240.00000,197.00000 L 242.00000,183.00000 L 244.00000,169.00000 L 246.00000,188.00000 L 248.00000,194.00000 L 250.00000,205.00000 L 251.00000,203.00000 L 253.00000,192.00000 L 255.00000,197.00000 L 257.00000,189.00000 L 259.00000,196.00000 L 261.00000,199.00000 L 263.00000,207.00000 L 265.00000,208.00000 L 267.00000,205.00000 L 269.00000,212.82322 L 271.00000,213.00000 L 326.00000,213.00000 L 328.00000,202.00000 L 330.00000,207.00000 L 332.00000,211.00000 L 334.00000,191.00000 L 336.00000,193.00000 L 338.00000,198.00000 L 340.00000,194.00000 L 342.00000,200.00000 L 343.00000,202.00000 L 345.00000,207.00000 L 347.00000,196.00000 L 349.00000,196.00000 L 351.00000,185.00000 L 353.00000,197.00000 L 355.00000,190.00000 L 357.00000,203.00000 L 359.00000,208.00000 L 361.00000,202.00000 L 363.00000,202.00000 L 365.00000,191.00000 L 367.00000,197.00000 L 368.00000,203.00000 L 370.00000,207.00000 L 372.00000,210.00000 L 374.00000,203.00000 L 376.00000,189.00000 L 378.00000,185.00000 L 380.00000,178.00000 L 382.00000,193.00000 L 384.00000,207.00000 L 386.00000,199.00000 L 388.00000,188.00000 L 390.00000,194.00000 L 391.00000,190.00000 L 393.00000,171.00000 L 395.00000,162.00000 L 397.00000,188.00000 L 399.00000,193.00000 L 401.00000,174.00000 L 403.00000,181.00000 L 405.00000,190.00000 L 407.00000,189.00000 L 409.00000,188.00000 L 411.00000,196.00000 L 413.00000,184.00000 L 414.00000,16.000000 L 416.00000,119.00000 L 418.00000,156.00000 L 420.00000,186.00000 L 422.00000,188.00000 L 424.00000,200.00000 L 426.00000,195.00000 L 428.00000,181.00000 L 430.00000,187.00000 L 432.00000,190.00000 L 434.00000,189.00000 L 436.00000,186.00000 L 437.00000,201.00000 L 439.00000,197.00000 L 441.00000,187.00000 L 443.00000,189.00000 L 445.00000,197.00000 L 447.00000,196.00000 L 449.00000,200.00000 L 451.00000,207.00000 L 453.00000,204.00000 L 455.00000,193.00000 L 457.00000,197.00000 L 459.00000,190.00000 L 460.00000,198.00000 L 462.00000,195.00000 L 464.00000,205.00000 L 466.00000,201.00000 L 468.00000,195.00000 L 470.00000,192.00000 L 472.00000,197.00000 L 474.00000,201.00000 L 476.00000,205.00000 L 478.00000,209.00000 L 480.00000,208.00000 L 482.00000,201.00000 L 483.00000,205.00000 L 485.00000,202.00000 L 487.00000,200.00000 L 489.00000,209.00000 L 491.00000,210.00000 L 493.00000,209.00000 L 495.00000,195.00000 L 497.00000,205.00000 L 499.00000,203.00000 L 501.00000,196.00000 L 503.00000,202.00000 L 505.00000,208.00000 L 507.00000,208.00000 L 508.00000,204.00000 L 510.00000,204.00000 L 512.00000,199.00000 L 514.00000,200.00000 L 516.00000,204.00000 L 518.00000,207.00000 L 520.00000,209.00000 L 522.00000,200.00000 L 524.00000,202.00000 L 526.00000,193.00000 L 528.00000,199.00000 L 530.00000,203.00000 L 531.00000,208.00000 L 533.00000,210.00000 L 535.00000,208.00000 L 537.00000,199.00000 L 539.00000,203.00000 L 541.00000,202.00000 L 543.00000,204.00000 L 545.00000,207.00000 L 547.00000,209.00000 L 549.00000,201.00000 L 551.00000,187.00000 L 553.00000,166.00000 L 554.00000,192.00000 L 556.00000,198.00000 L 558.00000,206.00000 L 560.00000,202.00000 L 562.00000,197.00000 L 564.00000,197.00000 L 566.00000,203.00000 L 568.00000,206.00000 L 570.00000,206.00000 L 572.00000,208.00000 L 574.00000,190.00000 L 576.00000,204.00000 L 577.00000,204.00000 L 579.00000,187.00000 L 581.00000,194.00000 L 583.00000,199.00000 L 585.00000,208.00000 L 587.00000,210.00000 L 589.00000,204.00000 L 591.00000,203.00000 L 593.00000,200.00000 L 595.00000,202.00000 L 597.00000,170.00000 L 599.00000,208.00000 L 600.00000,208.00000 L 602.00000,200.00000 L 604.00000,191.00000 L 606.00000,190.00000 L 608.00000,192.00000 L 610.00000,193.00000 L 612.00000,206.00000 L 614.00000,203.00000 L 616.00000,191.00000 L 618.00000,193.00000 L 620.00000,195.00000 L 622.00000,188.00000 L 623.00000,177.00000 L 625.00000,198.00000 L 627.00000,196.00000 L 629.00000,186.00000 L 631.00000,182.00000 L 633.00000,182.00000 L 635.00000,184.00000 L 637.00000,188.00000 L 639.00000,201.00000 L 641.00000,201.00000 L 643.00000,186.00000 L 645.00000,173.00000 L 647.00000,157.00000 L 648.00000,169.00000 L 650.00000,187.00000 L 652.00000,208.00000 L 654.00000,204.00000 L 656.00000,167.00000 L 658.00000,173.00000 L 660.00000,192.00000 L 662.00000,174.00000 L 664.00000,189.00000 L 666.00000,204.00000 L 668.00000,199.00000 L 670.00000,165.00000 L 671.00000,158.00000 L 673.00000,148.00000 L 675.00000,156.00000 L 677.00000,176.00000 L 679.00000,199.00000 L 681.00000,199.00000 L 683.00000,178.00000 L 685.00000,175.00000 L 687.00000,179.00000 L 689.00000,177.00000 L 691.00000,190.00000 L 693.00000,205.00000 L 694.00000,204.00000 L 696.00000,193.00000 L 698.00000,189.00000 L 700.00000,190.00000 L 702.00000,192.00000 L 704.00000,167.00000 L 706.00000,202.00000 L 708.00000,201.00000 L 710.00000,187.00000 L 712.00000,190.00000 L 714.00000,189.00000 L 716.00000,190.00000 L 717.00000,194.00000 L 719.00000,204.00000 L 721.00000,202.00000 L 723.00000,193.00000 L 725.00000,196.00000 L 727.00000,189.00000 L 729.00000,192.00000 L 731.00000,188.00000 L 733.00000,183.00000 L 735.00000,167.00000 L 737.00000,156.00000 L 739.00000,173.00000 L 740.00000,186.00000 L 742.00000,189.00000 L 744.00000,193.00000 L 746.00000,201.00000 L 748.00000,209.00000 L 750.00000,204.00000 L 752.00000,203.00000 L 754.00000,180.00000 L 756.00000,192.00000 L 758.00000,199.00000 L 760.00000,209.00000 L 762.00000,213.00000 L 763.00000,210.00000 L 765.00000,211.00000 L 767.00000,207.00000 L 769.00000,207.00000 L 771.00000,202.00000 L 773.00000,208.00000 L 775.00000,209.00000"
       id="path196"
       style="stroke:#ffdf2c;stroke-opacity:1.0000000;stroke-width:2.0000000;stroke-miterlimit:4.0000000;stroke-dasharray:none"
       sodipodi:nodetypes="cccccccccccccccccccccccccccccccccccccccccccccccccccccccccccccccccccccccccccccccccccccccccccccccccccccccccccccccccccccccccccccccccccccccccccccccccccccccccccccccccccccccccccccccccccccccccccccccccccccccccccccccccccccccccccccccccccccccccccccccccccccccccccccccccccccccccccccccccccccccccccccccccccccccccccccccccccccccccccccccccccccccccccccccccc" />
  </g>
  <flowRoot
     xml:space="preserve"
     id="flowRoot2231"
     style="font-size:12.000000px;font-style:normal;font-variant:normal;font-weight:normal;font-stretch:normal;text-align:center;line-height:125.00000%;writing-mode:lr-tb;text-anchor:middle;font-family:Bitstream Vera Sans"
     transform="translate(17.00000,44.00000)"><flowRegion
       id="flowRegion2233"><rect
         id="rect2235"
         width="64.000000"
         height="33.000000"
         x="711.00000"
         y="69.000000"
         style="font-family:Bitstream Vera Sans;font-weight:normal;font-style:normal;font-stretch:normal;font-variant:normal;font-size:12.000000;text-anchor:middle;text-align:center;writing-mode:lr;line-height:125%" /></flowRegion><flowPara
       id="flowPara2237">Christmas</flowPara><flowPara
       id="flowPara2239">day</flowPara></flowRoot>  <g
     id="g3772">
    <path
       id="path3759"
       style="color:#000000;fill:none;stroke:currentColor;stroke-width:1.0000000;display:inline"
       d="M 716.00000,223.00000 L 716.00000,214.00000 M 773.00000,223.00000 C 773.00000,211.00000 773.00000,208.00000 773.00000,214.00000"
       sodipodi:nodetypes="cccc" />
  </g>
  <path
     sodipodi:nodetypes="cc"
     id="path1475"
     d="M 297.00000,206.50000 C 297.00000,160.00000 297.00000,41.000000 297.00000,41.000000"
     style="color:#808080;fill:none;stroke:currentColor;stroke-width:1.0000000" />
</svg>
