<svg fill="none" height="32" viewBox="0 0 32 32" width="32" xmlns="http://www.w3.org/2000/svg"><path clip-rule="evenodd" d="m32 16c0 8.8366-7.1634 16-16 16-8.83656 0-16-7.1634-16-16 0-8.83656 7.16344-16 16-16 8.8366 0 16 7.16344 16 16zm-14.6954-3.9633v2.1212c.4443-.6766 1.0566-1.2264 1.777-1.5953.7204-.369 1.5244-.5446 2.333-.5097 4.3188 0 5.2525 2.7 5.2525 6.2125v7.1513h-4v-6.34c0-1.5125-.305-3.4575-2.66-3.4575-2.2837 0-2.6737 1.6462-2.6737 3.345v6.4525h-3.9875v-13.38zm-6.6375-3.36253c-.0005.39626-.1179.78355-.3376 1.11332-.2197.32981-.53188.58731-.89737.74041-.36533.1519-.76759.1916-1.15558.1141-.38798-.0774-.74414-.2686-1.02316-.5491-.27954-.28065-.46987-.63772-.54701-1.02627-.07715-.38855-.03771-.79124.1134-1.15743.15109-.36618.40709-.67952.73579-.9006.32871-.22109.71544-.34005 1.11156-.34193.26327 0 .52397.05198.7671.15296.24315.10097.46396.24896.64977.43548.1858.18651.333.40787.4331.65139.1.24352.151.5044.15.76767zm-4.00041 3.37873h4.00001v13.3638h-4.00001z" fill="#1475b8" fill-rule="evenodd"/></svg>