<svg fill="none" height="32" viewBox="0 0 32 32" width="32" xmlns="http://www.w3.org/2000/svg"><path d="m16 0c-2.1011 0-4.1817.424127-6.12294 1.24817-1.9412.82403-3.70503 2.03184-5.19077 3.55447-3.00058 3.07508-4.68629 7.24576-4.68629 11.59456 0 7.2476 4.592 13.3966 10.944 15.5774.8.1312 1.056-.3771 1.056-.8199v-2.7711c-4.432.9838-5.376-2.1972-5.376-2.1972-.736-1.9021-1.776-2.4104-1.776-2.4104-1.456-1.0166.112-.9838.112-.9838 1.6.1147 2.448 1.6889 2.448 1.6889 1.392 2.4923 3.744 1.7545 4.656 1.3609.144-1.0658.56-1.7873 1.008-2.1972-3.552-.4099-7.28-1.8201-7.28-8.0674 0-1.8201.608-3.2795 1.648-4.4437-.16-.4099-.72-2.11522.16-4.32885 0 0 1.344-.44272 4.4 1.67252 1.264-.36074 2.64-.54111 4-.54111s2.736.18037 4 .54111c3.056-2.11524 4.4-1.67252 4.4-1.67252.88 2.21363.32 3.91895.16 4.32885 1.04 1.1642 1.648 2.6236 1.648 4.4437 0 6.2637-3.744 7.6411-7.312 8.051.576.5083 1.104 1.5086 1.104 3.0335v4.4928c0 .4428.256.9675 1.072.8199 6.352-2.1972 10.928-8.3298 10.928-15.5774 0-2.1533-.4139-4.2855-1.2179-6.2749-.8041-1.98942-1.9827-3.79704-3.4684-5.31966-1.4857-1.52263-3.2496-2.73044-5.1908-3.55447-1.9412-.824043-4.0217-1.24817-6.1229-1.24817z" fill="#1475b8"/></svg>