<svg fill="none" height="32" viewBox="0 0 32 32" width="32" xmlns="http://www.w3.org/2000/svg"><path clip-rule="evenodd" d="m16 32c8.8366 0 16-7.1634 16-16 0-8.83656-7.1634-16-16-16-8.83656 0-16 7.16344-16 16 0 8.8366 7.16344 16 16 16zm4.48-26.66667h-8.96c-1.64083 0-3.21443.65181-4.37465 1.81203-1.16023 1.16023-1.81204 2.73383-1.81204 4.37464v8.96c0 3.4133 2.77333 6.1867 6.18669 6.1867h8.96c1.6408 0 3.2144-.6518 4.3746-1.8121 1.1602-1.1602 1.812-2.7338 1.812-4.3746v-8.96c0-3.41334-2.7733-6.18667-6.1866-6.18667zm-11.88865 3.25804c.72014-.72014 1.69685-1.12471 2.71525-1.12471h9.3867c2.1227 0 3.84 1.71734 3.84 3.84004v9.3866c0 1.0185-.4046 1.9952-1.1247 2.7153-.7201.7202-1.6969 1.1247-2.7153 1.1247h-9.3867c-2.12262 0-3.83996-1.7173-3.83996-3.84v-9.3866c0-1.0185.40458-1.99519 1.12471-2.71533zm13.95145.86582c-.2501-.25005-.5892-.39053-.9428-.39053s-.6928.14048-.9428.39053c-.2501.25004-.3906.58921-.3906.94281s.1405.6928.3906.9428c.25.2501.5892.3905.9428.3905s.6927-.1404.9428-.3905c.25-.25.3905-.5892.3905-.9428s-.1405-.69277-.3905-.94281zm-2.7716 2.77161c-1.0002-1.0002-2.3567-1.5621-3.7712-1.5621s-2.7711.5619-3.7713 1.5621-1.5621 2.3567-1.5621 3.7712.5619 2.771 1.5621 3.7712 2.3568 1.5621 3.7713 1.5621 2.771-.5619 3.7712-1.5621 1.5621-2.3567 1.5621-3.7712-.5619-2.771-1.5621-3.7712zm-6.034 1.5085c.6002-.6002 1.4141-.9373 2.2628-.9373s1.6626.3371 2.2627.9373c.6001.6001.9373 1.414.9373 2.2627s-.3372 1.6626-.9373 2.2627c-.6001.6002-1.414.9373-2.2627.9373s-1.6626-.3371-2.2628-.9373c-.6001-.6001-.9372-1.414-.9372-2.2627s.3371-1.6626.9372-2.2627z" fill="#1475b8" fill-rule="evenodd"/></svg>