<svg fill="none" height="32" viewBox="0 0 32 32" width="32" xmlns="http://www.w3.org/2000/svg"><path clip-rule="evenodd" d="m16 32c8.8366 0 16-7.1634 16-16 0-8.83656-7.1634-16-16-16-8.83656 0-16 7.16344-16 16 0 8.8366 7.16344 16 16 16zm4.5067-28c-.0002 1.3832.5021 2.71937 1.4133 3.76 1.8133 2.09333 4.32 1.97333 4.32 1.97333v4.11997c-2.0569.0036-4.0627-.6402-5.7333-1.84v8.3867c0 4.2-3.4001 7.6-7.5867 7.6-3.90668 0-7.58669-3.16-7.58669-7.6 0-4.56 4.02668-8.1333 8.62669-7.52v4.2133c-2.28-.7066-4.49336 1.0134-4.49336 3.3067 0 1.92 1.57336 3.4667 3.46666 3.4667.8955.0005 1.7561-.3468 2.4004-.9687s1.0218-1.4697 1.0529-2.3647v-16.5333z" fill="#1475b8" fill-rule="evenodd"/></svg>