<svg fill="none" height="32" viewBox="0 0 32 32" width="32" xmlns="http://www.w3.org/2000/svg"><path clip-rule="evenodd" d="m16 32c8.8366 0 16-7.1634 16-16 0-8.83656-7.1634-16-16-16-8.83656 0-16 7.16344-16 16 0 8.8366 7.16344 16 16 16zm-6.04269-22.69242c2.44589 1.72582 5.07629 5.22772 6.04269 7.10612.9653-1.8773 3.5968-5.3792 6.0426-7.10825 2.3435-1.65334 3.2363-1.3664 3.8219-1.10187.6784.3072.8021 1.3472.8021 1.96052 0 .6123-.336 5.0229-.5546 5.7589-.7243 2.432-3.3003 3.2534-5.6736 2.9899 3.4773.5152 6.2282 2.4619 2.4352 6.2912-4.6489 4.0599-5.8453-.1898-6.6665-3.1071-.0712-.2529-.1396-.4957-.2071-.7222l-.0083.0278c-.8494 2.849-2.5043 8.3999-6.94639 3.8015-4.05013-4.5099-.96-5.776 2.51729-6.2912-2.37435.2635-4.94929-.5579-5.67462-2.9899-.21867-.737-.55467-5.1466-.55467-5.76 0-.61115.12374-1.65329.80214-1.95729.5856-.26666 1.4784-.55146 3.82186 1.10187z" fill="#1475b8" fill-rule="evenodd"/></svg>